<svg id="Layer_1" data-name="Layer 1" xmlns="http://www.w3.org/2000/svg" viewBox="0 0 226.5 226.5"><defs><style>.cls-1{fill:#634193;stroke:#634193;stroke-miterlimit:10;stroke-width:0.7px;}.cls-2{fill:none;stroke:#fff;stroke-linecap:round;stroke-linejoin:round;stroke-width:4px;}.cls-3{fill:#fff;}</style></defs><circle class="cls-1" cx="113.25" cy="113.25" r="112.9"/><path class="cls-2" d="M150.1,137.55a104.14,104.14,0,0,1,18.39-7.4c5.83-1.72,10.5-2.53,15.83-2.05,3.85.36,7.08.65,7.65,2.3,1,2.93-7.36,7-20.93,17.36-14.51,11.08-15.53,14.52-23.75,17.11-1.14.36-7,.84-18.63,1.79-16.87,1.38-20.71,1.35-25.54.51L90,163.81c-12-3.06-14.15-3.62-17.46-3C65.66,162,60,167.17,60,167.17l-25.53-21.7s.48-1.12,9.45-9.45c6.68-6.2,8.18-7.64,11.23-9.19a30.48,30.48,0,0,1,10-3.07c3.48-.4,8.88.75,19.66,3.07,1.85.39,5.26,1.14,10,1.89,0,0,2.41.38,4.58.66,14,1.8,31.4.05,37-.51h0c6.09-.61,10.29,3.87,11,4.6,3.25,3.45,5.44,9.29,3.58,11.23-.49.51-1.2.67-5.36.51a69.79,69.79,0,0,1-7.66-.51c-3.32-.52-11.75-.54-34,1.53"/><path class="cls-3" d="M152.92,77.18c-.32-7.7-6.57-17.25-16-18.33-7.23-.83-14.5,3.47-18.27,10.89-3.71-7.33-10.8-11.61-17.86-10.89-9.47,1-15.73,10.61-16,18.33C84.24,87.8,95,95.74,104.94,103.11a77.82,77.82,0,0,0,13.86,8.19,77.49,77.49,0,0,0,13.87-8.19C142.63,95.74,153.37,87.8,152.92,77.18Z"/></svg>